<svg viewBox="0 0 512 512" xmlns="http://www.w3.org/2000/svg">
  <defs>
    <radialGradient id="icon-grad" cx="50%" cy="50%" r="50%">
      <stop offset="0%" stop-color="#2a1e14"/>
      <stop offset="100%" stop-color="#1a120b"/>
    </radialGradient>
  </defs>
  <circle cx="256" cy="256" r="256" fill="url(#icon-grad)"/>
  <g opacity="0.8">
    <path d="M128 256 A 128 128 0 0 1 384 256" stroke="#d4a017" stroke-width="8" stroke-linecap="round" fill="none" opacity="0.5"/>
    <path d="M96 256 A 160 160 0 0 1 416 256" stroke="#d4a017" stroke-width="12" stroke-linecap="round" fill="none" opacity="0.7"/>
    <path d="M64 256 A 192 192 0 0 1 448 256" stroke="#d4a017" stroke-width="16" stroke-linecap="round" fill="none" opacity="0.9"/>
  </g>
  <g transform="translate(0, 20)">
    <path fill="#8b4513" stroke="#d4a017" stroke-width="10" d="M256 128
      C 180 128, 160 180, 160 220
      C 160 280, 200 300, 256 300
      C 312 300, 352 280, 352 220
      C 352 180, 332 128, 256 128 Z" />
    <path d="M256 128 V 300" stroke="#d4a017" stroke-width="10" />
    <path d="M256 215 C 220 220, 200 190, 180 175" stroke="#d4a017" stroke-width="8" fill="none" stroke-linecap="round" />
    <path d="M256 215 C 292 220, 312 190, 332 175" stroke="#d4a017" stroke-width="8" fill="none" stroke-linecap="round" />
    <path d="M256 250 C 220 250, 200 280, 180 275" stroke="#d4a017" stroke-width="8" fill="none" stroke-linecap="round" />
    <path d="M256 250 C 292 250, 312 280, 332 275" stroke="#d4a017" stroke-width="8" fill="none" stroke-linecap="round" />
  </g>
</svg>